<svg width="21" height="20" viewBox="0 0 21 20" fill="none" xmlns="http://www.w3.org/2000/svg">
<path d="M18.2202 14.13C18.2202 15.38 17.8572 16.387 17.1322 17.072C16.4052 17.758 15.3982 18.122 14.1882 18.122H5.9622C4.7522 18.122 3.7442 17.758 3.0182 17.072C2.2932 16.347 1.9282 15.339 1.9282 14.089V5.82201C1.9282 4.61201 5.1922 0.702013 5.9172 -0.0239868C2.4122 -0.0219868 0.0751953 2.31601 0.0751953 5.82201V14.088C0.0751953 15.822 0.639195 17.315 1.7682 18.403C2.8572 19.451 4.3082 19.976 5.9622 19.976H14.1882C15.9212 19.976 17.3732 19.411 18.4212 18.403C19.5102 17.355 20.0752 15.863 20.0752 14.129V5.82201C20.0752 4.12901 19.5102 2.67701 18.4622 1.62901C17.4142 0.540013 15.9202 -0.0239868 14.2282 -0.0239868H5.9202L3.0182 2.88001C3.7042 2.19401 4.7522 1.83101 5.9622 1.83101H14.2682C15.4782 1.83101 16.4862 2.19401 17.2122 2.92101C17.8982 3.64601 18.3002 4.65401 18.3002 5.82301V14.13H18.2202ZM15.3572 5.94301C15.5135 5.94759 15.6692 5.92075 15.8149 5.86408C15.9607 5.80742 16.0936 5.72208 16.2058 5.61312C16.318 5.50416 16.4072 5.3738 16.4681 5.22976C16.529 5.08571 16.5604 4.93091 16.5604 4.77451C16.5604 4.61812 16.529 4.46332 16.4681 4.31927C16.4072 4.17522 16.318 4.04486 16.2058 3.93591C16.0936 3.82695 15.9607 3.74161 15.8149 3.68495C15.6692 3.62828 15.5135 3.60144 15.3572 3.60601C15.0532 3.61491 14.7647 3.74192 14.5528 3.96008C14.3409 4.17825 14.2224 4.4704 14.2224 4.77451C14.2224 5.07863 14.3409 5.37078 14.5528 5.58894C14.7647 5.80711 15.0532 5.93412 15.3572 5.94301ZM10.0752 13.283C9.19934 13.2791 8.36048 12.9294 7.74115 12.3101C7.12182 11.6907 6.77214 10.8519 6.7682 9.97601C6.77214 9.10016 7.12182 8.2613 7.74115 7.64197C8.36048 7.02264 9.19934 6.67296 10.0752 6.66901C10.9511 6.67296 11.7899 7.02264 12.4092 7.64197C13.0286 8.2613 13.3782 9.10016 13.3822 9.97601C13.378 10.8517 13.0282 11.6903 12.4089 12.3094C11.7896 12.9285 10.9509 13.2781 10.0752 13.282V13.283ZM10.0752 4.81501C7.2532 4.81501 4.9142 7.11301 4.9142 9.97601C4.91235 10.6543 5.04458 11.3262 5.30329 11.9532C5.562 12.5802 5.94209 13.1499 6.4217 13.6295C6.90131 14.1091 7.47099 14.4892 8.09798 14.7479C8.72498 15.0066 9.39692 15.1389 10.0752 15.137C12.9382 15.137 15.2352 12.798 15.2352 9.97701C15.2352 7.15301 12.8972 4.81501 10.0752 4.81501Z" fill="black"/>
</svg>
