<svg width="36" height="42" viewBox="0 0 36 42" fill="none" xmlns="http://www.w3.org/2000/svg">
<path fill-rule="evenodd" clip-rule="evenodd" d="M18.1516 11.7665C16.9227 11.7665 15.7441 12.2547 14.8752 13.1236C14.0062 13.9925 13.5181 15.1711 13.5181 16.4H11.5181C11.5181 14.6407 12.217 12.9534 13.461 11.7094C14.705 10.4654 16.3923 9.76648 18.1516 9.76648C19.9109 9.76648 21.5981 10.4654 22.8422 11.7094C24.0862 12.9534 24.7851 14.6407 24.7851 16.4H22.7851C22.7851 15.1711 22.2969 13.9925 21.4279 13.1236C20.559 12.2547 19.3804 11.7665 18.1516 11.7665Z" fill="black"/>
<path fill-rule="evenodd" clip-rule="evenodd" d="M9.76904 16.211H26.534V32.976H9.76904V16.211ZM11.769 18.211V30.976H24.534V18.211H11.769Z" fill="black"/>
</svg>
