<svg width="40" height="40" viewBox="0 0 40 40" fill="none" xmlns="http://www.w3.org/2000/svg">
<path fill-rule="evenodd" clip-rule="evenodd" d="M29.258 30.6831L24.166 25.5911L25.5802 24.1769L30.6722 29.2689L29.258 30.6831Z" fill="black"/>
<path fill-rule="evenodd" clip-rule="evenodd" d="M19.0759 11.891C17.1671 11.891 15.3366 12.6492 13.9869 13.9989C12.6372 15.3486 11.8789 17.1792 11.8789 19.088C11.8789 20.9968 12.6372 22.8273 13.9869 24.177C15.3366 25.5267 17.1671 26.285 19.0759 26.285C20.9847 26.285 22.8153 25.5267 24.165 24.177C25.5147 22.8273 26.2729 20.9968 26.2729 19.088C26.2729 17.1792 25.5147 15.3486 24.165 13.9989C22.8153 12.6492 20.9847 11.891 19.0759 11.891ZM12.5726 12.5847C14.2974 10.86 16.6367 9.89099 19.0759 9.89099C21.5151 9.89099 23.8544 10.86 25.5792 12.5847C27.3039 14.3095 28.2729 16.6488 28.2729 19.088C28.2729 21.5272 27.3039 23.8665 25.5792 25.5913C23.8544 27.316 21.5151 28.285 19.0759 28.285C16.6367 28.285 14.2974 27.316 12.5726 25.5913C10.8479 23.8665 9.87891 21.5272 9.87891 19.088C9.87891 16.6488 10.8479 14.3095 12.5726 12.5847Z" fill="black"/>
</svg>
